<?xml version="1.0" encoding="UTF-8" standalone="no"?>
<!-- Created with Inkscape (http://www.inkscape.org/) -->

<svg
   width="256"
   height="256"
   viewBox="0 0 67.733332 67.733333"
   version="1.1"
   id="svg1"
   xml:space="preserve"
   inkscape:version="1.3.2 (1:1.3.2+202311252150+091e20ef0f)"
   sodipodi:docname="logo.svg"
   xmlns:inkscape="http://www.inkscape.org/namespaces/inkscape"
   xmlns:sodipodi="http://sodipodi.sourceforge.net/DTD/sodipodi-0.dtd"
   xmlns="http://www.w3.org/2000/svg"
   xmlns:svg="http://www.w3.org/2000/svg"><sodipodi:namedview
     id="namedview1"
     pagecolor="#ffffff"
     bordercolor="#000000"
     borderopacity="0.25"
     inkscape:showpageshadow="2"
     inkscape:pageopacity="0.0"
     inkscape:pagecheckerboard="0"
     inkscape:deskcolor="#d1d1d1"
     inkscape:document-units="mm"
     inkscape:zoom="2.9505836"
     inkscape:cx="33.722142"
     inkscape:cy="137.43044"
     inkscape:window-width="3394"
     inkscape:window-height="1371"
     inkscape:window-x="0"
     inkscape:window-y="0"
     inkscape:window-maximized="1"
     inkscape:current-layer="layer1" /><defs
     id="defs1" /><g
     inkscape:label="Layer 1"
     inkscape:groupmode="layer"
     id="layer1"><rect
       style="fill:#f8f9fa;fill-opacity:1;stroke:none;stroke-width:1.5;stroke-opacity:1"
       id="rect1"
       width="44.658089"
       height="37.966633"
       x="11.613947"
       y="20.521687" /><path
       stroke="none"
       d="M 1.923509e-6,2.377393e-6 H 67.733337 V 67.733338 H 1.923509e-6 Z"
       fill="none"
       id="path1"
       style="stroke-width:0.264583" /><path
       d="m 45.155555,5.6444506 a 2.8222223,2.8222223 0 0 1 2.802464,2.4920214 l 0.02027,0.33024 v 2.822229 h 2.82223 a 8.4666669,8.4666669 0 0 1 8.452554,7.969953 l 0.01387,0.496746 v 33.866668 a 8.4666669,8.4666669 0 0 1 -7.969931,8.452555 L 50.80026,62.08873 H 16.933592 A 8.4666669,8.4666669 0 0 1 8.4807809,54.118937 L 8.4669142,53.622191 V 19.755523 a 8.4666669,8.4666669 0 0 1 7.9697068,-8.452512 l 0.496747,-0.01387 h 2.822187 V 8.4669146 a 2.8222223,2.8222223 0 0 1 5.624693,-0.33024 l 0.02027,0.33024 V 11.289144 H 42.333849 V 8.4666693 A 2.8222223,2.8222223 0 0 1 45.155555,5.6444506 Z M 53.622222,25.400003 H 14.111106 v 27.163894 c 0,1.989664 1.089376,3.629376 2.492022,3.855158 l 0.33024,0.0256 h 33.866668 c 1.447808,0 2.6416,-1.495776 2.802474,-3.429003 l 0.0192,-0.45152 z"
       id="path2"
       style="stroke-width:0.264583;stroke:none;stroke-opacity:1;fill:#228be6;fill-opacity:1" /><path
       d="m 33.86667,33.86667 a 2.8222223,2.8222223 0 0 1 2.802464,2.492022 l 0.02027,0.33024 v 8.466666 a 2.8222223,2.8222223 0 0 1 -5.624693,0.33024 l -0.02027,-0.33024 v -5.64448 A 2.8222223,2.8222223 0 0 1 30.7142,33.886425 l 0.33024,-0.02027 z"
       id="path3"
       style="stroke-width:0.264583;fill:#228be6;fill-opacity:1" /></g></svg>
